<?xml version="1.0" encoding="utf-8"?>
<!-- Generator: Adobe Illustrator 24.0.2, SVG Export Plug-In . SVG Version: 6.00 Build 0)  -->
<svg version="1.1" xmlns="http://www.w3.org/2000/svg" xmlns:xlink="http://www.w3.org/1999/xlink" x="0px" y="0px"
	 viewBox="0 0 24 24" style="enable-background:new 0 0 24 24;" xml:space="preserve">
<style type="text/css">
	.st0{fill:none;}
	.st1{fill:#121331;}
</style>
<g id="bounding_area">
	<rect class="st0" width="24" height="24"/>
</g>
<g id="design">
	<g>
		<path class="st1" d="M18.9,4.76C16.96,2.92,14.43,1.94,11.76,2c-2.67,0.07-5.16,1.17-7,3.1C2.92,7.04,1.94,9.57,2,12.24
			c0.07,2.67,1.17,5.16,3.1,7c0.08,0.08,0.16,0.15,0.25,0.22C7.19,21.11,9.52,22,11.99,22h0.25c2.39-0.06,4.64-0.95,6.41-2.54
			c0.2-0.17,0.4-0.36,0.59-0.56c1.79-1.88,2.76-4.32,2.76-6.91v-0.23C21.93,9.09,20.83,6.6,18.9,4.76z M12.21,20.5
			c-2.02,0.04-3.95-0.61-5.5-1.86c0.45-1.26,1.68-2.13,3.04-2.13h4.5c1.36,0,2.59,0.87,3.04,2.13
			C15.85,19.81,14.09,20.45,12.21,20.5z M18.44,17.53c-0.81-1.51-2.41-2.52-4.19-2.52h-4.5c-1.78,0-3.39,1.01-4.19,2.53
			c-1.29-1.48-2.01-3.34-2.06-5.33C3.45,9.94,4.28,7.78,5.85,6.14c1.56-1.65,3.67-2.58,5.94-2.64h0.22c2.19,0,4.26,0.83,5.85,2.35
			c0.82,0.78,1.47,1.7,1.92,2.7c0.44,1.01,0.69,2.11,0.72,3.24C20.55,13.91,19.83,15.94,18.44,17.53z"/>
		<path class="st1" d="M14.75,13.5h-3c-1.79,0-3.25-1.46-3.25-3.25v-2C8.5,6.46,9.96,5,11.75,5h0.5c1.79,0,3.25,1.46,3.25,3.25v4.5
			C15.5,13.16,15.16,13.5,14.75,13.5z M11.75,6.5C10.79,6.5,10,7.29,10,8.25v2c0,0.96,0.79,1.75,1.75,1.75H14V8.25
			c0-0.96-0.79-1.75-1.75-1.75H11.75z"/>
	</g>
</g>
</svg>
