<?xml version="1.0" encoding="utf-8"?>
<!-- Generator: Adobe Illustrator 24.0.2, SVG Export Plug-In . SVG Version: 6.00 Build 0)  -->
<svg version="1.1" xmlns="http://www.w3.org/2000/svg" xmlns:xlink="http://www.w3.org/1999/xlink" x="0px" y="0px"
	 viewBox="0 0 24 24" style="enable-background:new 0 0 24 24;" xml:space="preserve">
<style type="text/css">
	.st0{fill:none;}
	.st1{display:none;}
	.st2{display:inline;}
	.st3{fill:none;stroke:#CECECE;stroke-width:0.1;stroke-miterlimit:10;}
	.st4{fill:#121331;}
</style>
<g id="bounding_box">
	<rect x="0" y="0" class="st0" width="24" height="24"/>
</g>
<g id="design">
	<path class="st4" d="M17.25,21c-2.21,0-4-1.79-4-4s1.79-4,4-4s4,1.79,4,4S19.46,21,17.25,21z M17.25,14.5c-1.38,0-2.5,1.12-2.5,2.5
		s1.12,2.5,2.5,2.5s2.5-1.12,2.5-2.5S18.63,14.5,17.25,14.5z"/>
	<path class="st4" d="M19.25,10.5h-4c-0.96,0-1.75-0.79-1.75-1.75v-4C13.5,3.79,14.29,3,15.25,3h4C20.21,3,21,3.79,21,4.75v4
		C21,9.71,20.21,10.5,19.25,10.5z M15.25,4.5C15.11,4.5,15,4.61,15,4.75v4C15,8.89,15.11,9,15.25,9h4c0.14,0,0.25-0.11,0.25-0.25v-4
		c0-0.14-0.11-0.25-0.25-0.25H15.25z"/>
	<path class="st4" d="M10.71,10.5H3.79c-0.27,0-0.52-0.14-0.65-0.38S3,9.61,3.14,9.38l3.46-6c0.27-0.46,1.03-0.46,1.3,0l3.46,6
		c0.13,0.23,0.13,0.52,0,0.75S10.98,10.5,10.71,10.5z M5.08,9h4.33L7.25,5.25L5.08,9z"/>
	<g>
		<path class="st4" d="M10.66,19.47c0.29,0.29,0.29,0.77,0,1.06c-0.15,0.15-0.34,0.22-0.54,0.22c-0.19,0-0.38-0.07-0.53-0.22
			l-2.34-2.34l-2.34,2.34c-0.15,0.15-0.34,0.22-0.53,0.22c-0.2,0-0.39-0.07-0.54-0.22c-0.29-0.29-0.29-0.77,0-1.06l2.35-2.34
			l-2.35-2.35c-0.29-0.29-0.29-0.77,0-1.06c0.3-0.29,0.77-0.29,1.07,0l2.34,2.34l2.34-2.34c0.3-0.29,0.77-0.29,1.07,0
			c0.29,0.29,0.29,0.77,0,1.06l-2.34,2.35L10.66,19.47z"/>
	</g>
</g>
</svg>
